STARTFONT 2.1
FONT -tkw-tkw-r-normal--7-70-72-72-C-40-iso8859-1
SIZE 7 72 72
FONTBOUNDINGBOX 5 7 -1 -1
STARTPROPERTIES 21
FAMILY_NAME "tkw"
FOUNDRY "tkw"
SETWIDTH_NAME "Normal"
ADD_STYLE_NAME ""
COPYRIGHT "Copyright kakwalab (C) 2025"
NOTICE "Licensed under the SIL Open Font License, Version 1.1"
WEIGHT_NAME "Medium"
SLANT "R"
PIXEL_SIZE 7
POINT_SIZE 70
RESOLUTION_X 72
RESOLUTION_Y 72
SPACING "C"
AVERAGE_WIDTH 40
CHARSET_REGISTRY "ISO8859"
CHARSET_ENCODING "1"
MIN_SPACE 4
FONT_ASCENT 6
FONT_DESCENT 1
DEFAULT_CHAR 65533
_GBDFED_INFO "Edited with gbdfed 1.6."
ENDPROPERTIES
CHARS 179
STARTCHAR char35
ENCODING 33
SWIDTH 714 0
DWIDTH 5 0
BBX 5 7 -1 -1
BITMAP
20
20
20
20
00
20
00
ENDCHAR
STARTCHAR char36
ENCODING 34
SWIDTH 714 0
DWIDTH 5 0
BBX 5 7 -1 -1
BITMAP
50
50
00
00
00
00
00
ENDCHAR
STARTCHAR char37
ENCODING 35
SWIDTH 714 0
DWIDTH 5 0
BBX 5 7 -1 -1
BITMAP
00
30
78
30
78
30
00
ENDCHAR
STARTCHAR char38
ENCODING 36
SWIDTH 714 0
DWIDTH 5 0
BBX 5 7 -1 -1
BITMAP
30
78
70
30
38
78
30
ENDCHAR
STARTCHAR char39
ENCODING 37
SWIDTH 714 0
DWIDTH 5 0
BBX 5 7 -1 -1
BITMAP
00
00
48
10
20
48
00
ENDCHAR
STARTCHAR char40
ENCODING 38
SWIDTH 714 0
DWIDTH 5 0
BBX 5 7 -1 -1
BITMAP
20
50
20
68
50
28
00
ENDCHAR
STARTCHAR char41
ENCODING 39
SWIDTH 714 0
DWIDTH 5 0
BBX 5 7 -1 -1
BITMAP
10
10
00
00
00
00
00
ENDCHAR
STARTCHAR char42
ENCODING 40
SWIDTH 714 0
DWIDTH 5 0
BBX 5 7 -1 -1
BITMAP
10
20
20
20
20
10
00
ENDCHAR
STARTCHAR char43
ENCODING 41
SWIDTH 714 0
DWIDTH 5 0
BBX 5 7 -1 -1
BITMAP
20
10
10
10
10
20
00
ENDCHAR
STARTCHAR char42
ENCODING 42
SWIDTH 714 0
DWIDTH 5 0
BBX 5 7 -1 -1
BITMAP
00
48
30
78
30
48
00
ENDCHAR
STARTCHAR char43
ENCODING 43
SWIDTH 714 0
DWIDTH 5 0
BBX 5 7 -1 -1
BITMAP
00
00
20
70
20
00
00
ENDCHAR
STARTCHAR char44
ENCODING 44
SWIDTH 714 0
DWIDTH 5 0
BBX 5 7 -1 -1
BITMAP
00
00
00
00
10
20
00
ENDCHAR
STARTCHAR char45
ENCODING 45
SWIDTH 714 0
DWIDTH 5 0
BBX 5 7 -1 -1
BITMAP
00
00
00
70
00
00
00
ENDCHAR
STARTCHAR char46
ENCODING 46
SWIDTH 714 0
DWIDTH 5 0
BBX 5 7 -1 -1
BITMAP
00
00
00
00
00
20
00
ENDCHAR
STARTCHAR char47
ENCODING 47
SWIDTH 714 0
DWIDTH 5 0
BBX 5 7 -1 -1
BITMAP
00
08
10
20
40
00
00
ENDCHAR
STARTCHAR char0
ENCODING 48
SWIDTH 714 0
DWIDTH 5 0
BBX 5 7 -1 -1
BITMAP
30
48
58
68
48
30
00
ENDCHAR
STARTCHAR char1
ENCODING 49
SWIDTH 714 0
DWIDTH 5 0
BBX 5 7 -1 -1
BITMAP
20
60
20
20
20
70
00
ENDCHAR
STARTCHAR char2
ENCODING 50
SWIDTH 714 0
DWIDTH 5 0
BBX 5 7 -1 -1
BITMAP
30
48
48
10
20
78
00
ENDCHAR
STARTCHAR char3
ENCODING 51
SWIDTH 714 0
DWIDTH 5 0
BBX 5 7 -1 -1
BITMAP
78
08
10
08
48
30
00
ENDCHAR
STARTCHAR char4
ENCODING 52
SWIDTH 714 0
DWIDTH 5 0
BBX 5 7 -1 -1
BITMAP
10
30
50
78
10
10
00
ENDCHAR
STARTCHAR char5
ENCODING 53
SWIDTH 714 0
DWIDTH 5 0
BBX 5 7 -1 -1
BITMAP
78
40
70
08
08
70
00
ENDCHAR
STARTCHAR char6
ENCODING 54
SWIDTH 714 0
DWIDTH 5 0
BBX 5 7 -1 -1
BITMAP
30
40
70
48
48
30
00
ENDCHAR
STARTCHAR char7
ENCODING 55
SWIDTH 714 0
DWIDTH 5 0
BBX 5 7 -1 -1
BITMAP
78
08
10
10
20
20
00
ENDCHAR
STARTCHAR char8
ENCODING 56
SWIDTH 714 0
DWIDTH 5 0
BBX 5 7 -1 -1
BITMAP
30
48
30
48
48
30
00
ENDCHAR
STARTCHAR char9
ENCODING 57
SWIDTH 714 0
DWIDTH 5 0
BBX 5 7 -1 -1
BITMAP
30
48
48
38
08
30
00
ENDCHAR
STARTCHAR char58
ENCODING 58
SWIDTH 714 0
DWIDTH 5 0
BBX 5 7 -1 -1
BITMAP
00
00
10
00
00
10
00
ENDCHAR
STARTCHAR char59
ENCODING 59
SWIDTH 714 0
DWIDTH 5 0
BBX 5 7 -1 -1
BITMAP
00
00
10
00
10
20
00
ENDCHAR
STARTCHAR char60
ENCODING 60
SWIDTH 714 0
DWIDTH 5 0
BBX 5 7 -1 -1
BITMAP
00
10
20
40
20
10
00
ENDCHAR
STARTCHAR char61
ENCODING 61
SWIDTH 714 0
DWIDTH 5 0
BBX 5 7 -1 -1
BITMAP
00
00
70
00
70
00
00
ENDCHAR
STARTCHAR char62
ENCODING 62
SWIDTH 714 0
DWIDTH 5 0
BBX 5 7 -1 -1
BITMAP
00
40
20
10
20
40
00
ENDCHAR
STARTCHAR char63
ENCODING 63
SWIDTH 714 0
DWIDTH 5 0
BBX 5 7 -1 -1
BITMAP
30
48
10
10
00
10
00
ENDCHAR
STARTCHAR char64
ENCODING 64
SWIDTH 714 0
DWIDTH 5 0
BBX 5 7 -1 -1
BITMAP
30
68
68
58
40
38
00
ENDCHAR
STARTCHAR char10
ENCODING 65
SWIDTH 714 0
DWIDTH 5 0
BBX 5 7 -1 -1
BITMAP
30
48
48
78
48
48
00
ENDCHAR
STARTCHAR char11
ENCODING 66
SWIDTH 714 0
DWIDTH 5 0
BBX 5 7 -1 -1
BITMAP
70
48
70
48
48
70
00
ENDCHAR
STARTCHAR char12
ENCODING 67
SWIDTH 714 0
DWIDTH 5 0
BBX 5 7 -1 -1
BITMAP
30
48
40
40
48
30
00
ENDCHAR
STARTCHAR char13
ENCODING 68
SWIDTH 714 0
DWIDTH 5 0
BBX 5 7 -1 -1
BITMAP
70
48
48
48
48
70
00
ENDCHAR
STARTCHAR char14
ENCODING 69
SWIDTH 714 0
DWIDTH 5 0
BBX 5 7 -1 -1
BITMAP
78
40
70
40
40
78
00
ENDCHAR
STARTCHAR char15
ENCODING 70
SWIDTH 714 0
DWIDTH 5 0
BBX 5 7 -1 -1
BITMAP
78
40
70
40
40
40
00
ENDCHAR
STARTCHAR char71
ENCODING 71
SWIDTH 714 0
DWIDTH 5 0
BBX 5 7 -1 -1
BITMAP
30
48
40
58
48
30
00
ENDCHAR
STARTCHAR char72
ENCODING 72
SWIDTH 714 0
DWIDTH 5 0
BBX 5 7 -1 -1
BITMAP
48
48
78
48
48
48
00
ENDCHAR
STARTCHAR char73
ENCODING 73
SWIDTH 714 0
DWIDTH 5 0
BBX 5 7 -1 -1
BITMAP
70
20
20
20
20
70
00
ENDCHAR
STARTCHAR char74
ENCODING 74
SWIDTH 714 0
DWIDTH 5 0
BBX 5 7 -1 -1
BITMAP
78
10
10
10
50
50
20
ENDCHAR
STARTCHAR char75
ENCODING 75
SWIDTH 714 0
DWIDTH 5 0
BBX 5 7 -1 -1
BITMAP
48
50
60
50
48
48
00
ENDCHAR
STARTCHAR char76
ENCODING 76
SWIDTH 714 0
DWIDTH 5 0
BBX 5 7 -1 -1
BITMAP
40
40
40
40
40
78
00
ENDCHAR
STARTCHAR char77
ENCODING 77
SWIDTH 714 0
DWIDTH 5 0
BBX 5 7 -1 -1
BITMAP
48
78
78
48
48
48
00
ENDCHAR
STARTCHAR char78
ENCODING 78
SWIDTH 714 0
DWIDTH 5 0
BBX 5 7 -1 -1
BITMAP
48
68
68
58
58
48
00
ENDCHAR
STARTCHAR char79
ENCODING 79
SWIDTH 714 0
DWIDTH 5 0
BBX 5 7 -1 -1
BITMAP
30
48
48
48
48
30
00
ENDCHAR
STARTCHAR char80
ENCODING 80
SWIDTH 714 0
DWIDTH 5 0
BBX 5 7 -1 -1
BITMAP
70
48
48
70
40
40
00
ENDCHAR
STARTCHAR char81
ENCODING 81
SWIDTH 714 0
DWIDTH 5 0
BBX 5 7 -1 -1
BITMAP
30
48
48
48
48
30
08
ENDCHAR
STARTCHAR char82
ENCODING 82
SWIDTH 714 0
DWIDTH 5 0
BBX 5 7 -1 -1
BITMAP
70
48
48
70
48
48
00
ENDCHAR
STARTCHAR char83
ENCODING 83
SWIDTH 714 0
DWIDTH 5 0
BBX 5 7 -1 -1
BITMAP
38
40
30
08
08
70
00
ENDCHAR
STARTCHAR char84
ENCODING 84
SWIDTH 714 0
DWIDTH 5 0
BBX 5 7 -1 -1
BITMAP
78
20
20
20
20
20
00
ENDCHAR
STARTCHAR char85
ENCODING 85
SWIDTH 714 0
DWIDTH 5 0
BBX 5 7 -1 -1
BITMAP
48
48
48
48
48
30
00
ENDCHAR
STARTCHAR char86
ENCODING 86
SWIDTH 714 0
DWIDTH 5 0
BBX 5 7 -1 -1
BITMAP
48
48
48
30
30
30
00
ENDCHAR
STARTCHAR char87
ENCODING 87
SWIDTH 714 0
DWIDTH 5 0
BBX 5 7 -1 -1
BITMAP
48
48
48
78
78
48
00
ENDCHAR
STARTCHAR char87
ENCODING 88
SWIDTH 714 0
DWIDTH 5 0
BBX 5 7 -1 -1
BITMAP
48
48
30
30
48
48
00
ENDCHAR
STARTCHAR char87
ENCODING 89
SWIDTH 714 0
DWIDTH 5 0
BBX 5 7 -1 -1
BITMAP
48
48
28
18
08
48
30
ENDCHAR
STARTCHAR char89
ENCODING 90
SWIDTH 714 0
DWIDTH 5 0
BBX 5 7 -1 -1
BITMAP
78
08
10
20
40
78
00
ENDCHAR
STARTCHAR char90
ENCODING 91
SWIDTH 714 0
DWIDTH 5 0
BBX 5 7 -1 -1
BITMAP
70
40
40
40
40
70
00
ENDCHAR
STARTCHAR char91
ENCODING 92
SWIDTH 714 0
DWIDTH 5 0
BBX 5 7 -1 -1
BITMAP
00
40
20
10
08
00
00
ENDCHAR
STARTCHAR char92
ENCODING 93
SWIDTH 714 0
DWIDTH 5 0
BBX 5 7 -1 -1
BITMAP
38
08
08
08
08
38
00
ENDCHAR
STARTCHAR char93
ENCODING 94
SWIDTH 714 0
DWIDTH 5 0
BBX 5 7 -1 -1
BITMAP
20
50
00
00
00
00
00
ENDCHAR
STARTCHAR char95
ENCODING 95
SWIDTH 714 0
DWIDTH 5 0
BBX 5 7 -1 -1
BITMAP
00
00
00
00
00
78
00
ENDCHAR
STARTCHAR char96
ENCODING 96
SWIDTH 714 0
DWIDTH 5 0
BBX 5 7 -1 -1
BITMAP
20
10
00
00
00
00
00
ENDCHAR
STARTCHAR char97
ENCODING 97
SWIDTH 714 0
DWIDTH 5 0
BBX 5 7 -1 -1
BITMAP
00
70
08
38
48
38
00
ENDCHAR
STARTCHAR char98
ENCODING 98
SWIDTH 714 0
DWIDTH 5 0
BBX 5 7 -1 -1
BITMAP
40
70
48
48
48
70
00
ENDCHAR
STARTCHAR char99
ENCODING 99
SWIDTH 714 0
DWIDTH 5 0
BBX 5 7 -1 -1
BITMAP
00
30
48
40
48
30
00
ENDCHAR
STARTCHAR char100
ENCODING 100
SWIDTH 714 0
DWIDTH 5 0
BBX 5 7 -1 -1
BITMAP
08
38
48
48
48
38
00
ENDCHAR
STARTCHAR char101
ENCODING 101
SWIDTH 714 0
DWIDTH 5 0
BBX 5 7 -1 -1
BITMAP
00
30
48
70
40
38
00
ENDCHAR
STARTCHAR char102
ENCODING 102
SWIDTH 714 0
DWIDTH 5 0
BBX 5 7 -1 -1
BITMAP
30
40
60
40
40
40
00
ENDCHAR
STARTCHAR char103
ENCODING 103
SWIDTH 714 0
DWIDTH 5 0
BBX 5 7 -1 -1
BITMAP
00
38
48
48
38
08
30
ENDCHAR
STARTCHAR char104
ENCODING 104
SWIDTH 714 0
DWIDTH 5 0
BBX 5 7 -1 -1
BITMAP
40
70
48
48
48
48
00
ENDCHAR
STARTCHAR char105
ENCODING 105
SWIDTH 714 0
DWIDTH 5 0
BBX 5 7 -1 -1
BITMAP
20
00
20
20
20
10
00
ENDCHAR
STARTCHAR char106
ENCODING 106
SWIDTH 714 0
DWIDTH 5 0
BBX 5 7 -1 -1
BITMAP
10
00
10
10
10
50
20
ENDCHAR
STARTCHAR char107
ENCODING 107
SWIDTH 714 0
DWIDTH 5 0
BBX 5 7 -1 -1
BITMAP
40
40
50
60
50
50
00
ENDCHAR
STARTCHAR char108
ENCODING 108
SWIDTH 714 0
DWIDTH 5 0
BBX 5 7 -1 -1
BITMAP
60
20
20
20
20
10
00
ENDCHAR
STARTCHAR char109
ENCODING 109
SWIDTH 714 0
DWIDTH 5 0
BBX 5 7 -1 -1
BITMAP
00
48
78
78
48
48
00
ENDCHAR
STARTCHAR char110
ENCODING 110
SWIDTH 714 0
DWIDTH 5 0
BBX 5 7 -1 -1
BITMAP
00
70
48
48
48
48
00
ENDCHAR
STARTCHAR char111
ENCODING 111
SWIDTH 714 0
DWIDTH 5 0
BBX 5 7 -1 -1
BITMAP
00
30
48
48
48
30
00
ENDCHAR
STARTCHAR char112
ENCODING 112
SWIDTH 714 0
DWIDTH 5 0
BBX 5 7 -1 -1
BITMAP
00
70
48
48
48
70
40
ENDCHAR
STARTCHAR char113
ENCODING 113
SWIDTH 714 0
DWIDTH 5 0
BBX 5 7 -1 -1
BITMAP
00
38
48
48
48
38
08
ENDCHAR
STARTCHAR char114
ENCODING 114
SWIDTH 714 0
DWIDTH 5 0
BBX 5 7 -1 -1
BITMAP
00
50
68
40
40
40
00
ENDCHAR
STARTCHAR char115
ENCODING 115
SWIDTH 714 0
DWIDTH 5 0
BBX 5 7 -1 -1
BITMAP
00
38
40
30
08
70
00
ENDCHAR
STARTCHAR char116
ENCODING 116
SWIDTH 714 0
DWIDTH 5 0
BBX 5 7 -1 -1
BITMAP
40
70
40
40
40
30
00
ENDCHAR
STARTCHAR char117
ENCODING 117
SWIDTH 714 0
DWIDTH 5 0
BBX 5 7 -1 -1
BITMAP
00
48
48
48
48
30
00
ENDCHAR
STARTCHAR char118
ENCODING 118
SWIDTH 714 0
DWIDTH 5 0
BBX 5 7 -1 -1
BITMAP
00
48
48
30
30
30
00
ENDCHAR
STARTCHAR char119
ENCODING 119
SWIDTH 714 0
DWIDTH 5 0
BBX 5 7 -1 -1
BITMAP
00
48
48
78
78
48
00
ENDCHAR
STARTCHAR char120
ENCODING 120
SWIDTH 714 0
DWIDTH 5 0
BBX 5 7 -1 -1
BITMAP
00
48
30
30
30
48
00
ENDCHAR
STARTCHAR char121
ENCODING 121
SWIDTH 714 0
DWIDTH 5 0
BBX 5 7 -1 -1
BITMAP
00
48
48
38
08
08
30
ENDCHAR
STARTCHAR char122
ENCODING 122
SWIDTH 714 0
DWIDTH 5 0
BBX 5 7 -1 -1
BITMAP
00
78
08
30
40
78
00
ENDCHAR
STARTCHAR char123
ENCODING 123
SWIDTH 714 0
DWIDTH 5 0
BBX 5 7 -1 -1
BITMAP
10
20
20
40
20
20
10
ENDCHAR
STARTCHAR char125
ENCODING 124
SWIDTH 714 0
DWIDTH 5 0
BBX 5 7 -1 -1
BITMAP
20
20
20
20
20
20
00
ENDCHAR
STARTCHAR char125
ENCODING 125
SWIDTH 714 0
DWIDTH 5 0
BBX 5 7 -1 -1
BITMAP
20
10
10
08
10
10
20
ENDCHAR
STARTCHAR char126
ENCODING 126
SWIDTH 714 0
DWIDTH 5 0
BBX 5 7 -1 -1
BITMAP
28
50
00
00
00
00
00
ENDCHAR
STARTCHAR char125
ENCODING 161
SWIDTH 714 0
DWIDTH 5 0
BBX 5 7 -1 -1
BITMAP
20
00
20
20
20
20
00
ENDCHAR
STARTCHAR char162
ENCODING 162
SWIDTH 714 0
DWIDTH 5 0
BBX 5 7 -1 -1
BITMAP
10
38
50
50
50
38
10
ENDCHAR
STARTCHAR char163
ENCODING 163
SWIDTH 714 0
DWIDTH 5 0
BBX 5 7 -1 -1
BITMAP
10
28
20
70
20
78
00
ENDCHAR
STARTCHAR char164
ENCODING 164
SWIDTH 714 0
DWIDTH 5 0
BBX 5 7 -1 -1
BITMAP
00
08
70
50
70
08
00
ENDCHAR
STARTCHAR char165
ENCODING 165
SWIDTH 714 0
DWIDTH 5 0
BBX 5 7 -1 -1
BITMAP
28
28
78
10
78
10
00
ENDCHAR
STARTCHAR char166
ENCODING 166
SWIDTH 714 0
DWIDTH 5 0
BBX 5 7 -1 -1
BITMAP
20
20
00
00
20
20
00
ENDCHAR
STARTCHAR char167
ENCODING 167
SWIDTH 714 0
DWIDTH 5 0
BBX 5 7 -1 -1
BITMAP
38
40
70
48
38
08
70
ENDCHAR
STARTCHAR char168
ENCODING 168
SWIDTH 714 0
DWIDTH 5 0
BBX 5 7 -1 -1
BITMAP
48
00
00
00
00
00
00
ENDCHAR
STARTCHAR char169
ENCODING 169
SWIDTH 714 0
DWIDTH 5 0
BBX 5 7 -1 -1
BITMAP
30
58
68
68
58
30
00
ENDCHAR
STARTCHAR char170
ENCODING 170
SWIDTH 714 0
DWIDTH 5 0
BBX 5 7 -1 -1
BITMAP
70
28
78
00
78
00
00
ENDCHAR
STARTCHAR char171
ENCODING 171
SWIDTH 714 0
DWIDTH 5 0
BBX 5 7 -1 -1
BITMAP
00
28
50
28
00
00
00
ENDCHAR
STARTCHAR char172
ENCODING 172
SWIDTH 714 0
DWIDTH 5 0
BBX 5 7 -1 -1
BITMAP
00
00
78
08
00
00
00
ENDCHAR
STARTCHAR char173
ENCODING 173
SWIDTH 714 0
DWIDTH 5 0
BBX 5 7 -1 -1
BITMAP
00
00
70
00
00
00
00
ENDCHAR
STARTCHAR char169
ENCODING 174
SWIDTH 714 0
DWIDTH 5 0
BBX 5 7 -1 -1
BITMAP
30
48
68
58
68
58
30
ENDCHAR
STARTCHAR char175
ENCODING 175
SWIDTH 714 0
DWIDTH 5 0
BBX 5 7 -1 -1
BITMAP
00
78
00
00
00
00
00
ENDCHAR
STARTCHAR char176
ENCODING 176
SWIDTH 714 0
DWIDTH 5 0
BBX 5 7 -1 -1
BITMAP
20
50
20
00
00
00
00
ENDCHAR
STARTCHAR char177
ENCODING 177
SWIDTH 714 0
DWIDTH 5 0
BBX 5 7 -1 -1
BITMAP
20
20
78
20
20
78
00
ENDCHAR
STARTCHAR char179
ENCODING 178
SWIDTH 714 0
DWIDTH 5 0
BBX 5 7 -1 -1
BITMAP
20
50
20
70
00
00
00
ENDCHAR
STARTCHAR char179
ENCODING 179
SWIDTH 714 0
DWIDTH 5 0
BBX 5 7 -1 -1
BITMAP
70
30
10
70
00
00
00
ENDCHAR
STARTCHAR char180
ENCODING 180
SWIDTH 714 0
DWIDTH 5 0
BBX 5 7 -1 -1
BITMAP
10
20
00
00
00
00
00
ENDCHAR
STARTCHAR char181
ENCODING 181
SWIDTH 714 0
DWIDTH 5 0
BBX 5 7 -1 -1
BITMAP
00
00
48
48
48
78
40
ENDCHAR
STARTCHAR char182
ENCODING 182
SWIDTH 714 0
DWIDTH 5 0
BBX 5 7 -1 -1
BITMAP
78
28
28
68
28
28
00
ENDCHAR
STARTCHAR char183
ENCODING 183
SWIDTH 714 0
DWIDTH 5 0
BBX 5 7 -1 -1
BITMAP
00
00
20
20
00
00
00
ENDCHAR
STARTCHAR char184
ENCODING 184
SWIDTH 714 0
DWIDTH 5 0
BBX 5 7 -1 -1
BITMAP
00
00
00
00
10
20
00
ENDCHAR
STARTCHAR char184
ENCODING 185
SWIDTH 714 0
DWIDTH 5 0
BBX 5 7 -1 -1
BITMAP
10
30
10
10
00
00
00
ENDCHAR
STARTCHAR char178
ENCODING 186
SWIDTH 714 0
DWIDTH 5 0
BBX 5 7 -1 -1
BITMAP
30
48
30
78
00
00
00
ENDCHAR
STARTCHAR char171
ENCODING 187
SWIDTH 714 0
DWIDTH 5 0
BBX 5 7 -1 -1
BITMAP
00
50
28
50
00
00
00
ENDCHAR
STARTCHAR char187
ENCODING 188
SWIDTH 714 0
DWIDTH 5 0
BBX 5 7 -1 -1
BITMAP
20
28
10
28
58
08
00
ENDCHAR
STARTCHAR char187
ENCODING 189
SWIDTH 714 0
DWIDTH 5 0
BBX 5 7 -1 -1
BITMAP
20
28
10
38
48
18
00
ENDCHAR
STARTCHAR char187
ENCODING 190
SWIDTH 714 0
DWIDTH 5 0
BBX 5 7 -1 -1
BITMAP
60
68
10
28
58
08
00
ENDCHAR
STARTCHAR char191
ENCODING 191
SWIDTH 714 0
DWIDTH 5 0
BBX 5 7 -1 -1
BITMAP
10
00
10
20
40
30
00
ENDCHAR
STARTCHAR char10
ENCODING 192
SWIDTH 714 0
DWIDTH 5 0
BBX 5 7 -1 -1
BITMAP
20
10
30
48
78
48
00
ENDCHAR
STARTCHAR char10
ENCODING 193
SWIDTH 714 0
DWIDTH 5 0
BBX 5 7 -1 -1
BITMAP
10
20
30
48
78
48
00
ENDCHAR
STARTCHAR char10
ENCODING 194
SWIDTH 714 0
DWIDTH 5 0
BBX 5 7 -1 -1
BITMAP
30
48
30
48
78
48
00
ENDCHAR
STARTCHAR char10
ENCODING 195
SWIDTH 714 0
DWIDTH 5 0
BBX 5 7 -1 -1
BITMAP
28
50
30
48
78
48
00
ENDCHAR
STARTCHAR char10
ENCODING 196
SWIDTH 714 0
DWIDTH 5 0
BBX 5 7 -1 -1
BITMAP
48
00
30
48
78
48
00
ENDCHAR
STARTCHAR char10
ENCODING 197
SWIDTH 714 0
DWIDTH 5 0
BBX 5 7 -1 -1
BITMAP
30
48
30
48
78
48
00
ENDCHAR
STARTCHAR char10
ENCODING 198
SWIDTH 714 0
DWIDTH 5 0
BBX 5 7 -1 -1
BITMAP
58
20
78
20
20
38
00
ENDCHAR
STARTCHAR char198
ENCODING 199
SWIDTH 714 0
DWIDTH 5 0
BBX 5 7 -1 -1
BITMAP
30
48
40
40
48
30
20
ENDCHAR
STARTCHAR char199
ENCODING 200
SWIDTH 714 0
DWIDTH 5 0
BBX 5 7 -1 -1
BITMAP
10
78
40
78
40
78
00
ENDCHAR
STARTCHAR char199
ENCODING 201
SWIDTH 714 0
DWIDTH 5 0
BBX 5 7 -1 -1
BITMAP
20
78
40
78
40
78
00
ENDCHAR
STARTCHAR char199
ENCODING 202
SWIDTH 714 0
DWIDTH 5 0
BBX 5 7 -1 -1
BITMAP
30
78
40
78
40
78
00
ENDCHAR
STARTCHAR char199
ENCODING 203
SWIDTH 714 0
DWIDTH 5 0
BBX 5 7 -1 -1
BITMAP
48
78
40
78
40
78
00
ENDCHAR
STARTCHAR char203
ENCODING 204
SWIDTH 714 0
DWIDTH 5 0
BBX 5 7 -1 -1
BITMAP
40
00
70
20
20
70
00
ENDCHAR
STARTCHAR char204
ENCODING 205
SWIDTH 714 0
DWIDTH 5 0
BBX 5 7 -1 -1
BITMAP
10
00
70
20
20
70
00
ENDCHAR
STARTCHAR char205
ENCODING 206
SWIDTH 714 0
DWIDTH 5 0
BBX 5 7 -1 -1
BITMAP
20
50
70
20
20
70
00
ENDCHAR
STARTCHAR char206
ENCODING 207
SWIDTH 714 0
DWIDTH 5 0
BBX 5 7 -1 -1
BITMAP
50
00
70
20
20
70
00
ENDCHAR
STARTCHAR char97
ENCODING 224
SWIDTH 714 0
DWIDTH 5 0
BBX 5 7 -1 -1
BITMAP
20
30
08
38
48
38
00
ENDCHAR
STARTCHAR char97
ENCODING 225
SWIDTH 714 0
DWIDTH 5 0
BBX 5 7 -1 -1
BITMAP
10
30
08
38
48
38
00
ENDCHAR
STARTCHAR char97
ENCODING 226
SWIDTH 714 0
DWIDTH 5 0
BBX 5 7 -1 -1
BITMAP
30
30
08
38
48
38
00
ENDCHAR
STARTCHAR char97
ENCODING 227
SWIDTH 714 0
DWIDTH 5 0
BBX 5 7 -1 -1
BITMAP
28
50
08
38
48
38
00
ENDCHAR
STARTCHAR char97
ENCODING 228
SWIDTH 714 0
DWIDTH 5 0
BBX 5 7 -1 -1
BITMAP
48
30
08
38
48
38
00
ENDCHAR
STARTCHAR char97
ENCODING 229
SWIDTH 714 0
DWIDTH 5 0
BBX 5 7 -1 -1
BITMAP
30
78
08
38
48
38
00
ENDCHAR
STARTCHAR char97
ENCODING 230
SWIDTH 714 0
DWIDTH 5 0
BBX 5 7 -1 -1
BITMAP
00
78
28
78
20
78
00
ENDCHAR
STARTCHAR char99
ENCODING 231
SWIDTH 714 0
DWIDTH 5 0
BBX 5 7 -1 -1
BITMAP
00
00
38
40
40
38
10
ENDCHAR
STARTCHAR char101
ENCODING 232
SWIDTH 714 0
DWIDTH 5 0
BBX 5 7 -1 -1
BITMAP
20
30
48
70
40
38
00
ENDCHAR
STARTCHAR char101
ENCODING 233
SWIDTH 714 0
DWIDTH 5 0
BBX 5 7 -1 -1
BITMAP
10
30
48
70
40
38
00
ENDCHAR
STARTCHAR char101
ENCODING 234
SWIDTH 714 0
DWIDTH 5 0
BBX 5 7 -1 -1
BITMAP
30
78
48
70
40
38
00
ENDCHAR
STARTCHAR char101
ENCODING 235
SWIDTH 714 0
DWIDTH 5 0
BBX 5 7 -1 -1
BITMAP
48
30
48
70
40
38
00
ENDCHAR
STARTCHAR char105
ENCODING 236
SWIDTH 714 0
DWIDTH 5 0
BBX 5 7 -1 -1
BITMAP
40
20
00
20
20
10
00
ENDCHAR
STARTCHAR char105
ENCODING 237
SWIDTH 714 0
DWIDTH 5 0
BBX 5 7 -1 -1
BITMAP
20
40
00
20
20
10
00
ENDCHAR
STARTCHAR char105
ENCODING 238
SWIDTH 714 0
DWIDTH 5 0
BBX 5 7 -1 -1
BITMAP
20
50
00
20
20
10
00
ENDCHAR
STARTCHAR char105
ENCODING 239
SWIDTH 714 0
DWIDTH 5 0
BBX 5 7 -1 -1
BITMAP
00
50
00
20
20
10
00
ENDCHAR
STARTCHAR char111
ENCODING 240
SWIDTH 714 0
DWIDTH 5 0
BBX 5 7 -1 -1
BITMAP
20
78
30
50
50
20
00
ENDCHAR
STARTCHAR char110
ENCODING 241
SWIDTH 714 0
DWIDTH 5 0
BBX 5 7 -1 -1
BITMAP
28
50
60
50
50
50
00
ENDCHAR
STARTCHAR char111
ENCODING 242
SWIDTH 714 0
DWIDTH 5 0
BBX 5 7 -1 -1
BITMAP
10
20
30
48
48
30
00
ENDCHAR
STARTCHAR char111
ENCODING 243
SWIDTH 714 0
DWIDTH 5 0
BBX 5 7 -1 -1
BITMAP
20
10
30
48
48
30
00
ENDCHAR
STARTCHAR char111
ENCODING 244
SWIDTH 714 0
DWIDTH 5 0
BBX 5 7 -1 -1
BITMAP
30
48
30
48
48
30
00
ENDCHAR
STARTCHAR char111
ENCODING 245
SWIDTH 714 0
DWIDTH 5 0
BBX 5 7 -1 -1
BITMAP
28
50
30
48
48
30
00
ENDCHAR
STARTCHAR char111
ENCODING 246
SWIDTH 714 0
DWIDTH 5 0
BBX 5 7 -1 -1
BITMAP
48
00
30
48
48
30
00
ENDCHAR
STARTCHAR char43
ENCODING 247
SWIDTH 714 0
DWIDTH 5 0
BBX 5 7 -1 -1
BITMAP
00
20
00
78
00
20
00
ENDCHAR
STARTCHAR char111
ENCODING 248
SWIDTH 714 0
DWIDTH 5 0
BBX 5 7 -1 -1
BITMAP
68
10
30
50
10
60
00
ENDCHAR
STARTCHAR char117
ENCODING 249
SWIDTH 714 0
DWIDTH 5 0
BBX 5 7 -1 -1
BITMAP
20
10
00
48
48
30
00
ENDCHAR
STARTCHAR char117
ENCODING 250
SWIDTH 714 0
DWIDTH 5 0
BBX 5 7 -1 -1
BITMAP
10
20
00
48
48
30
00
ENDCHAR
STARTCHAR char117
ENCODING 251
SWIDTH 714 0
DWIDTH 5 0
BBX 5 7 -1 -1
BITMAP
30
48
00
48
48
30
00
ENDCHAR
STARTCHAR char117
ENCODING 252
SWIDTH 714 0
DWIDTH 5 0
BBX 5 7 -1 -1
BITMAP
48
00
00
48
48
30
00
ENDCHAR
STARTCHAR char121
ENCODING 253
SWIDTH 714 0
DWIDTH 5 0
BBX 5 7 -1 -1
BITMAP
10
20
50
50
20
20
00
ENDCHAR
STARTCHAR char254
ENCODING 254
SWIDTH 714 0
DWIDTH 5 0
BBX 5 7 -1 -1
BITMAP
40
70
48
48
70
40
00
ENDCHAR
STARTCHAR char121
ENCODING 255
SWIDTH 714 0
DWIDTH 5 0
BBX 5 7 -1 -1
BITMAP
50
00
50
50
20
20
00
ENDCHAR
STARTCHAR char10
ENCODING 256
SWIDTH 714 0
DWIDTH 5 0
BBX 5 7 -1 -1
BITMAP
78
00
30
48
78
48
00
ENDCHAR
STARTCHAR char97
ENCODING 257
SWIDTH 714 0
DWIDTH 5 0
BBX 5 7 -1 -1
BITMAP
78
00
38
38
48
38
00
ENDCHAR
STARTCHAR char10
ENCODING 258
SWIDTH 714 0
DWIDTH 5 0
BBX 5 7 -1 -1
BITMAP
48
78
30
48
78
48
00
ENDCHAR
STARTCHAR char97
ENCODING 259
SWIDTH 714 0
DWIDTH 5 0
BBX 5 7 -1 -1
BITMAP
48
78
08
38
48
38
00
ENDCHAR
STARTCHAR char10
ENCODING 260
SWIDTH 714 0
DWIDTH 5 0
BBX 5 7 -1 -1
BITMAP
20
50
50
70
50
50
18
ENDCHAR
STARTCHAR char97
ENCODING 261
SWIDTH 714 0
DWIDTH 5 0
BBX 5 7 -1 -1
BITMAP
00
60
10
70
50
30
08
ENDCHAR
ENDFONT
